<mxfile modified="2022-05-02T00:12:16.734Z" host="app.diagrams.net" agent="5.0 (Windows NT 10.0; Win64; x64) AppleWebKit/537.36 (KHTML, like Gecko) Chrome/100.0.4896.127 Safari/537.36 Edg/100.0.1185.50" etag="i3b79dVc3Psokt_ygJ2_" compressed="false" version="17.5.0" type="google">
  <diagram id="9AJ8zdHQoICtBZa5yvDD" name="Procurement Types">
    <mxGraphModel grid="1" page="1" gridSize="10" guides="1" tooltips="1" connect="1" arrows="1" fold="1" pageScale="1" pageWidth="827" pageHeight="1169" math="0" shadow="0">
      <root>
        <mxCell id="Akdn3M5tacZwbOQ_gnpA-0" />
        <mxCell id="Akdn3M5tacZwbOQ_gnpA-1" parent="Akdn3M5tacZwbOQ_gnpA-0" />
        <mxCell id="Akdn3M5tacZwbOQ_gnpA-2" value="Request for Information (RFI)" style="rounded=0;whiteSpace=wrap;html=1;" vertex="1" parent="Akdn3M5tacZwbOQ_gnpA-1">
          <mxGeometry x="150" y="200" width="80" height="40" as="geometry" />
        </mxCell>
        <mxCell id="Akdn3M5tacZwbOQ_gnpA-3" value="Request for Proposals (RFP)" style="rounded=0;whiteSpace=wrap;html=1;" vertex="1" parent="Akdn3M5tacZwbOQ_gnpA-1">
          <mxGeometry x="330" y="200" width="80" height="40" as="geometry" />
        </mxCell>
        <mxCell id="Akdn3M5tacZwbOQ_gnpA-4" value="Request for Tender &lt;br&gt;(RFT)" style="rounded=0;whiteSpace=wrap;html=1;" vertex="1" parent="Akdn3M5tacZwbOQ_gnpA-1">
          <mxGeometry x="420" y="200" width="80" height="40" as="geometry" />
        </mxCell>
        <mxCell id="Akdn3M5tacZwbOQ_gnpA-5" value="&lt;font style=&quot;font-size: 12px&quot;&gt;Diagram: Procurement Types&lt;/font&gt;" style="text;strokeColor=none;fillColor=none;html=1;fontSize=12;fontStyle=2;verticalAlign=middle;align=left;shadow=0;glass=0;comic=0;opacity=30;fontColor=#808080;" vertex="1" parent="Akdn3M5tacZwbOQ_gnpA-1">
          <mxGeometry x="120" y="380" width="560" height="20" as="geometry" />
        </mxCell>
        <mxCell id="Akdn3M5tacZwbOQ_gnpA-6" value="Request for Quotation&lt;br&gt;(RFQ)" style="rounded=0;whiteSpace=wrap;html=1;" vertex="1" parent="Akdn3M5tacZwbOQ_gnpA-1">
          <mxGeometry x="510" y="200" width="80" height="40" as="geometry" />
        </mxCell>
        <mxCell id="Akdn3M5tacZwbOQ_gnpA-7" value="A Supplier/ Service Qualification Process&lt;br&gt;prior to an RFP, etc." style="rounded=0;whiteSpace=wrap;html=1;fillColor=#f5f5f5;fontColor=#333333;strokeColor=none;align=left;verticalAlign=top;" vertex="1" parent="Akdn3M5tacZwbOQ_gnpA-1">
          <mxGeometry x="150" y="250" width="80" height="110" as="geometry" />
        </mxCell>
        <mxCell id="Akdn3M5tacZwbOQ_gnpA-8" value="A request for Price for a specific product." style="rounded=0;whiteSpace=wrap;html=1;fillColor=#f5f5f5;fontColor=#333333;strokeColor=none;align=left;verticalAlign=top;" vertex="1" parent="Akdn3M5tacZwbOQ_gnpA-1">
          <mxGeometry x="510" y="250" width="80" height="110" as="geometry" />
        </mxCell>
        <mxCell id="Akdn3M5tacZwbOQ_gnpA-9" value="&lt;div&gt;&lt;font color=&quot;#333333&quot;&gt;&lt;span style=&quot;background-color: rgb(255 , 255 , 255)&quot;&gt;A defined business solution based request for a vendor to deliver it somehow.&amp;nbsp;&lt;/span&gt;&lt;/font&gt;&lt;/div&gt;" style="rounded=0;whiteSpace=wrap;html=1;fillColor=#f5f5f5;fontColor=#333333;strokeColor=none;align=left;verticalAlign=top;" vertex="1" parent="Akdn3M5tacZwbOQ_gnpA-1">
          <mxGeometry x="330" y="250" width="80" height="110" as="geometry" />
        </mxCell>
        <mxCell id="Akdn3M5tacZwbOQ_gnpA-10" value="Request for Solution (RFS)" style="rounded=0;whiteSpace=wrap;html=1;" vertex="1" parent="Akdn3M5tacZwbOQ_gnpA-1">
          <mxGeometry x="240" y="200" width="80" height="40" as="geometry" />
        </mxCell>
        <mxCell id="Akdn3M5tacZwbOQ_gnpA-11" value="A request for a collaborative process to develop the solution to a problem.&amp;nbsp;" style="rounded=0;whiteSpace=wrap;html=1;fillColor=#f5f5f5;fontColor=#333333;strokeColor=none;align=left;verticalAlign=top;" vertex="1" parent="Akdn3M5tacZwbOQ_gnpA-1">
          <mxGeometry x="240" y="250" width="80" height="110" as="geometry" />
        </mxCell>
        <mxCell id="Akdn3M5tacZwbOQ_gnpA-12" value="Request for Partner&lt;br&gt;(RFP)" style="rounded=0;whiteSpace=wrap;html=1;" vertex="1" parent="Akdn3M5tacZwbOQ_gnpA-1">
          <mxGeometry x="600" y="200" width="80" height="40" as="geometry" />
        </mxCell>
        <mxCell id="Akdn3M5tacZwbOQ_gnpA-13" value="A request for collaboration &amp;amp; investment in a common service&amp;nbsp;" style="rounded=0;whiteSpace=wrap;html=1;fillColor=#f5f5f5;fontColor=#333333;strokeColor=none;align=left;verticalAlign=top;" vertex="1" parent="Akdn3M5tacZwbOQ_gnpA-1">
          <mxGeometry x="600" y="250" width="80" height="110" as="geometry" />
        </mxCell>
        <mxCell id="Akdn3M5tacZwbOQ_gnpA-14" value="&lt;div&gt;&lt;font color=&quot;#333333&quot;&gt;&lt;span style=&quot;background-color: rgb(255 , 255 , 255)&quot;&gt;A request for a price to deliver a specific service (but on which product is not defined).&lt;/span&gt;&lt;/font&gt;&lt;/div&gt;" style="rounded=0;whiteSpace=wrap;html=1;fillColor=#f5f5f5;fontColor=#333333;strokeColor=none;align=left;verticalAlign=top;" vertex="1" parent="Akdn3M5tacZwbOQ_gnpA-1">
          <mxGeometry x="420" y="250" width="80" height="110" as="geometry" />
        </mxCell>
        <mxCell id="Akdn3M5tacZwbOQ_gnpA-15" value="Description" style="rounded=0;whiteSpace=wrap;html=1;align=center;horizontal=0;fillColor=#f5f5f5;strokeColor=#666666;fontColor=#333333;fontStyle=1" vertex="1" parent="Akdn3M5tacZwbOQ_gnpA-1">
          <mxGeometry x="120" y="250" width="20" height="110" as="geometry" />
        </mxCell>
        <mxCell id="Akdn3M5tacZwbOQ_gnpA-16" value="Type" style="rounded=0;whiteSpace=wrap;html=1;align=center;horizontal=0;fillColor=#f5f5f5;strokeColor=#666666;fontColor=#333333;fontStyle=1" vertex="1" parent="Akdn3M5tacZwbOQ_gnpA-1">
          <mxGeometry x="120" y="200" width="20" height="40" as="geometry" />
        </mxCell>
      </root>
    </mxGraphModel>
  </diagram>
</mxfile>
